<mxfile host="app.diagrams.net" agent="Mozilla/5.0 (Linux; Android 10; K) AppleWebKit/537.36 (KHTML, like Gecko) Chrome/128.0.0.0 Mobile Safari/537.36" version="24.7.14">
  <diagram name="Página-1" id="f7d3e6Io1blZs1dCLm9L">
    <mxGraphModel dx="362" dy="634" grid="1" gridSize="10" guides="1" tooltips="1" connect="1" arrows="1" fold="1" page="1" pageScale="1" pageWidth="827" pageHeight="1169" math="0" shadow="0">
      <root>
        <mxCell id="0" />
        <mxCell id="1" parent="0" />
        <mxCell id="MdB9R3-AbIYy_LwFj9kP-3" value="" style="edgeStyle=orthogonalEdgeStyle;rounded=0;orthogonalLoop=1;jettySize=auto;html=1;" parent="1" source="MdB9R3-AbIYy_LwFj9kP-1" target="MdB9R3-AbIYy_LwFj9kP-2" edge="1">
          <mxGeometry relative="1" as="geometry" />
        </mxCell>
        <mxCell id="MdB9R3-AbIYy_LwFj9kP-4" value="" style="edgeStyle=orthogonalEdgeStyle;rounded=0;orthogonalLoop=1;jettySize=auto;html=1;" parent="1" source="MdB9R3-AbIYy_LwFj9kP-1" target="MdB9R3-AbIYy_LwFj9kP-2" edge="1">
          <mxGeometry relative="1" as="geometry" />
        </mxCell>
        <mxCell id="MdB9R3-AbIYy_LwFj9kP-5" value="" style="edgeStyle=orthogonalEdgeStyle;rounded=0;orthogonalLoop=1;jettySize=auto;html=1;" parent="1" source="MdB9R3-AbIYy_LwFj9kP-1" target="MdB9R3-AbIYy_LwFj9kP-2" edge="1">
          <mxGeometry relative="1" as="geometry" />
        </mxCell>
        <mxCell id="MdB9R3-AbIYy_LwFj9kP-1" value="Usuário&lt;div&gt;&lt;br&gt;&lt;/div&gt;" style="shape=umlActor;verticalLabelPosition=bottom;verticalAlign=top;html=1;outlineConnect=0;" parent="1" vertex="1">
          <mxGeometry x="100" y="255" width="30" height="60" as="geometry" />
        </mxCell>
        <mxCell id="MdB9R3-AbIYy_LwFj9kP-2" value="Guelexia" style="rounded=0;whiteSpace=wrap;html=1;align=center;" parent="1" vertex="1">
          <mxGeometry x="210" y="50" width="450" height="470" as="geometry" />
        </mxCell>
        <mxCell id="MdB9R3-AbIYy_LwFj9kP-7" value="Navegar&amp;nbsp;&lt;div&gt;conteúdo&lt;/div&gt;" style="ellipse;whiteSpace=wrap;html=1;" parent="1" vertex="1">
          <mxGeometry x="250" y="70" width="75" height="50" as="geometry" />
        </mxCell>
        <mxCell id="MdB9R3-AbIYy_LwFj9kP-8" value="Realizar&lt;div&gt;tarefas&lt;/div&gt;" style="ellipse;whiteSpace=wrap;html=1;" parent="1" vertex="1">
          <mxGeometry x="250" y="270" width="75" height="50" as="geometry" />
        </mxCell>
        <mxCell id="MdB9R3-AbIYy_LwFj9kP-13" style="edgeStyle=orthogonalEdgeStyle;rounded=0;orthogonalLoop=1;jettySize=auto;html=1;exitX=0.5;exitY=1;exitDx=0;exitDy=0;" parent="1" edge="1">
          <mxGeometry relative="1" as="geometry">
            <mxPoint x="331.5" y="530" as="sourcePoint" />
            <mxPoint x="331.5" y="530" as="targetPoint" />
          </mxGeometry>
        </mxCell>
        <mxCell id="MdB9R3-AbIYy_LwFj9kP-39" style="rounded=0;orthogonalLoop=1;jettySize=auto;html=1;exitX=0.92;exitY=0.221;exitDx=0;exitDy=0;dashed=1;exitPerimeter=0;entryX=0.343;entryY=0.942;entryDx=0;entryDy=0;entryPerimeter=0;" parent="1" source="MdB9R3-AbIYy_LwFj9kP-16" target="MdB9R3-AbIYy_LwFj9kP-34" edge="1">
          <mxGeometry relative="1" as="geometry" />
        </mxCell>
        <mxCell id="MdB9R3-AbIYy_LwFj9kP-40" value="&amp;lt;&amp;lt;incluir&amp;gt;&amp;gt;" style="edgeLabel;html=1;align=center;verticalAlign=middle;resizable=0;points=[];" parent="MdB9R3-AbIYy_LwFj9kP-39" connectable="0" vertex="1">
          <mxGeometry x="0.0006" y="1" relative="1" as="geometry">
            <mxPoint as="offset" />
          </mxGeometry>
        </mxCell>
        <mxCell id="MdB9R3-AbIYy_LwFj9kP-15" value="Fazer Cadastro" style="ellipse;whiteSpace=wrap;html=1;" parent="1" vertex="1">
          <mxGeometry x="250" y="140" width="75" height="50" as="geometry" />
        </mxCell>
        <mxCell id="MdB9R3-AbIYy_LwFj9kP-16" value="Fazer Login" style="ellipse;whiteSpace=wrap;html=1;" parent="1" vertex="1">
          <mxGeometry x="250" y="205" width="75" height="50" as="geometry" />
        </mxCell>
        <mxCell id="MdB9R3-AbIYy_LwFj9kP-17" value="Consultar dicionário" style="ellipse;whiteSpace=wrap;html=1;" parent="1" vertex="1">
          <mxGeometry x="250" y="340" width="75" height="50" as="geometry" />
        </mxCell>
        <mxCell id="MdB9R3-AbIYy_LwFj9kP-18" value="Configurar&lt;div&gt;Perfil&lt;/div&gt;" style="ellipse;whiteSpace=wrap;html=1;" parent="1" vertex="1">
          <mxGeometry x="250" y="410" width="75" height="50" as="geometry" />
        </mxCell>
        <mxCell id="MdB9R3-AbIYy_LwFj9kP-19" style="rounded=0;orthogonalLoop=1;jettySize=auto;html=1;exitX=1;exitY=0.3333333333333333;exitDx=0;exitDy=0;exitPerimeter=0;entryX=0;entryY=0.5;entryDx=0;entryDy=0;" parent="1" source="MdB9R3-AbIYy_LwFj9kP-1" target="MdB9R3-AbIYy_LwFj9kP-7" edge="1">
          <mxGeometry relative="1" as="geometry" />
        </mxCell>
        <mxCell id="MdB9R3-AbIYy_LwFj9kP-20" style="rounded=0;orthogonalLoop=1;jettySize=auto;html=1;exitX=1;exitY=0.3333333333333333;exitDx=0;exitDy=0;exitPerimeter=0;entryX=0.019;entryY=0.749;entryDx=0;entryDy=0;entryPerimeter=0;" parent="1" source="MdB9R3-AbIYy_LwFj9kP-1" target="MdB9R3-AbIYy_LwFj9kP-15" edge="1">
          <mxGeometry relative="1" as="geometry" />
        </mxCell>
        <mxCell id="MdB9R3-AbIYy_LwFj9kP-21" style="rounded=0;orthogonalLoop=1;jettySize=auto;html=1;exitX=1;exitY=0.3333333333333333;exitDx=0;exitDy=0;exitPerimeter=0;entryX=0.138;entryY=0.259;entryDx=0;entryDy=0;entryPerimeter=0;" parent="1" source="MdB9R3-AbIYy_LwFj9kP-1" target="MdB9R3-AbIYy_LwFj9kP-8" edge="1">
          <mxGeometry relative="1" as="geometry" />
        </mxCell>
        <mxCell id="MdB9R3-AbIYy_LwFj9kP-22" style="rounded=0;orthogonalLoop=1;jettySize=auto;html=1;exitX=1;exitY=0.3333333333333333;exitDx=0;exitDy=0;exitPerimeter=0;entryX=0;entryY=0.5;entryDx=0;entryDy=0;" parent="1" source="MdB9R3-AbIYy_LwFj9kP-1" target="MdB9R3-AbIYy_LwFj9kP-16" edge="1">
          <mxGeometry relative="1" as="geometry" />
        </mxCell>
        <mxCell id="MdB9R3-AbIYy_LwFj9kP-24" style="rounded=0;orthogonalLoop=1;jettySize=auto;html=1;exitX=1;exitY=0.3333333333333333;exitDx=0;exitDy=0;exitPerimeter=0;entryX=-0.018;entryY=0.377;entryDx=0;entryDy=0;entryPerimeter=0;" parent="1" source="MdB9R3-AbIYy_LwFj9kP-1" target="MdB9R3-AbIYy_LwFj9kP-17" edge="1">
          <mxGeometry relative="1" as="geometry" />
        </mxCell>
        <mxCell id="MdB9R3-AbIYy_LwFj9kP-25" style="rounded=0;orthogonalLoop=1;jettySize=auto;html=1;exitX=1;exitY=0.3333333333333333;exitDx=0;exitDy=0;exitPerimeter=0;entryX=0.056;entryY=0.314;entryDx=0;entryDy=0;entryPerimeter=0;" parent="1" source="MdB9R3-AbIYy_LwFj9kP-1" target="MdB9R3-AbIYy_LwFj9kP-18" edge="1">
          <mxGeometry relative="1" as="geometry" />
        </mxCell>
        <mxCell id="MdB9R3-AbIYy_LwFj9kP-32" value="" style="edgeStyle=orthogonalEdgeStyle;rounded=0;orthogonalLoop=1;jettySize=auto;html=1;" parent="1" source="MdB9R3-AbIYy_LwFj9kP-26" target="MdB9R3-AbIYy_LwFj9kP-2" edge="1">
          <mxGeometry relative="1" as="geometry" />
        </mxCell>
        <mxCell id="MdB9R3-AbIYy_LwFj9kP-26" value="API dicionário" style="shape=umlActor;verticalLabelPosition=bottom;verticalAlign=top;html=1;outlineConnect=0;" parent="1" vertex="1">
          <mxGeometry x="700" y="315" width="30" height="60" as="geometry" />
        </mxCell>
        <mxCell id="MdB9R3-AbIYy_LwFj9kP-29" style="rounded=0;orthogonalLoop=1;jettySize=auto;html=1;exitX=0;exitY=0.3333333333333333;exitDx=0;exitDy=0;exitPerimeter=0;entryX=0.929;entryY=0.252;entryDx=0;entryDy=0;entryPerimeter=0;" parent="1" source="MdB9R3-AbIYy_LwFj9kP-26" target="MdB9R3-AbIYy_LwFj9kP-17" edge="1">
          <mxGeometry relative="1" as="geometry" />
        </mxCell>
        <mxCell id="MdB9R3-AbIYy_LwFj9kP-34" value="Verificar&lt;div&gt;senha&lt;/div&gt;" style="ellipse;whiteSpace=wrap;html=1;" parent="1" vertex="1">
          <mxGeometry x="414" y="70" width="75" height="50" as="geometry" />
        </mxCell>
        <mxCell id="MdB9R3-AbIYy_LwFj9kP-41" style="rounded=0;orthogonalLoop=1;jettySize=auto;html=1;exitX=0;exitY=0.5;exitDx=0;exitDy=0;entryX=1;entryY=0.5;entryDx=0;entryDy=0;dashed=1;" parent="1" source="MdB9R3-AbIYy_LwFj9kP-35" target="MdB9R3-AbIYy_LwFj9kP-16" edge="1">
          <mxGeometry relative="1" as="geometry" />
        </mxCell>
        <mxCell id="MdB9R3-AbIYy_LwFj9kP-42" value="&amp;lt;&amp;lt;estender&amp;gt;&amp;gt;" style="edgeLabel;html=1;align=center;verticalAlign=middle;resizable=0;points=[];" parent="MdB9R3-AbIYy_LwFj9kP-41" connectable="0" vertex="1">
          <mxGeometry x="-0.0026" y="1" relative="1" as="geometry">
            <mxPoint as="offset" />
          </mxGeometry>
        </mxCell>
        <mxCell id="MdB9R3-AbIYy_LwFj9kP-35" value="Exibir aviso de erro" style="ellipse;whiteSpace=wrap;html=1;" parent="1" vertex="1">
          <mxGeometry x="468" y="110" width="75" height="50" as="geometry" />
        </mxCell>
        <mxCell id="MdB9R3-AbIYy_LwFj9kP-51" style="edgeStyle=orthogonalEdgeStyle;rounded=0;orthogonalLoop=1;jettySize=auto;html=1;exitX=0;exitY=0.5;exitDx=0;exitDy=0;endArrow=block;endFill=0;" parent="1" target="MdB9R3-AbIYy_LwFj9kP-8" edge="1">
          <mxGeometry relative="1" as="geometry">
            <mxPoint x="357.0000000000016" y="290" as="targetPoint" />
            <mxPoint x="562.0000000000052" y="260" as="sourcePoint" />
            <Array as="points">
              <mxPoint x="462" y="260" />
              <mxPoint x="462" y="290" />
            </Array>
          </mxGeometry>
        </mxCell>
        <mxCell id="MdB9R3-AbIYy_LwFj9kP-46" value="&lt;font style=&quot;font-size: 10px;&quot;&gt;Realizar&lt;/font&gt;&lt;div style=&quot;font-size: 10px;&quot;&gt;&lt;font style=&quot;font-size: 10px;&quot;&gt;&quot;fábulas&quot;&lt;/font&gt;&lt;/div&gt;" style="ellipse;whiteSpace=wrap;html=1;" parent="1" vertex="1">
          <mxGeometry x="530" y="250" width="50" height="30" as="geometry" />
        </mxCell>
        <mxCell id="MdB9R3-AbIYy_LwFj9kP-50" style="edgeStyle=orthogonalEdgeStyle;rounded=0;orthogonalLoop=1;jettySize=auto;html=1;exitX=0;exitY=0.5;exitDx=0;exitDy=0;endArrow=block;endFill=0;" parent="1" target="MdB9R3-AbIYy_LwFj9kP-8" edge="1">
          <mxGeometry relative="1" as="geometry">
            <mxPoint x="589.0000000000102" y="210" as="sourcePoint" />
            <mxPoint x="357.0000000000016" y="290" as="targetPoint" />
            <Array as="points">
              <mxPoint x="462" y="210" />
              <mxPoint x="462" y="290" />
            </Array>
          </mxGeometry>
        </mxCell>
        <mxCell id="MdB9R3-AbIYy_LwFj9kP-47" value="&lt;font style=&quot;font-size: 10px;&quot;&gt;Realizar&lt;/font&gt;&lt;div style=&quot;font-size: 10px;&quot;&gt;&lt;font style=&quot;font-size: 10px;&quot;&gt;&quot;oqé&quot;&lt;/font&gt;&lt;/div&gt;" style="ellipse;whiteSpace=wrap;html=1;" parent="1" vertex="1">
          <mxGeometry x="557" y="200" width="50" height="30" as="geometry" />
        </mxCell>
        <mxCell id="MdB9R3-AbIYy_LwFj9kP-52" style="edgeStyle=orthogonalEdgeStyle;rounded=0;orthogonalLoop=1;jettySize=auto;html=1;exitX=0;exitY=0.5;exitDx=0;exitDy=0;endArrow=block;endFill=0;" parent="1" target="MdB9R3-AbIYy_LwFj9kP-8" edge="1">
          <mxGeometry relative="1" as="geometry">
            <mxPoint x="531.9999999999945" y="189.9999999999999" as="sourcePoint" />
            <mxPoint x="350" y="290" as="targetPoint" />
            <Array as="points">
              <mxPoint x="462" y="190" />
              <mxPoint x="462" y="290" />
            </Array>
          </mxGeometry>
        </mxCell>
        <mxCell id="MdB9R3-AbIYy_LwFj9kP-48" value="&lt;font style=&quot;font-size: 10px;&quot;&gt;Realizar&lt;/font&gt;&lt;div style=&quot;font-size: 10px;&quot;&gt;&lt;font style=&quot;font-size: 10px;&quot;&gt;&quot;rimas&quot;&lt;/font&gt;&lt;/div&gt;" style="ellipse;whiteSpace=wrap;html=1;" parent="1" vertex="1">
          <mxGeometry x="500" y="180" width="50" height="30" as="geometry" />
        </mxCell>
        <mxCell id="MdB9R3-AbIYy_LwFj9kP-54" value="Verificar&lt;div&gt;palavra&lt;/div&gt;" style="ellipse;whiteSpace=wrap;html=1;" parent="1" vertex="1">
          <mxGeometry x="523" y="360" width="75" height="50" as="geometry" />
        </mxCell>
        <mxCell id="MdB9R3-AbIYy_LwFj9kP-55" style="rounded=0;orthogonalLoop=1;jettySize=auto;html=1;exitX=1;exitY=0.5;exitDx=0;exitDy=0;entryX=0.069;entryY=0.297;entryDx=0;entryDy=0;entryPerimeter=0;dashed=1;" parent="1" source="MdB9R3-AbIYy_LwFj9kP-17" target="MdB9R3-AbIYy_LwFj9kP-54" edge="1">
          <mxGeometry relative="1" as="geometry" />
        </mxCell>
        <mxCell id="MdB9R3-AbIYy_LwFj9kP-56" value="&amp;lt;&amp;lt;include&amp;gt;&amp;gt;" style="edgeLabel;html=1;align=center;verticalAlign=middle;resizable=0;points=[];" parent="MdB9R3-AbIYy_LwFj9kP-55" connectable="0" vertex="1">
          <mxGeometry x="0.0245" y="2" relative="1" as="geometry">
            <mxPoint as="offset" />
          </mxGeometry>
        </mxCell>
        <mxCell id="MdB9R3-AbIYy_LwFj9kP-57" value="Exibir aviso de erro" style="ellipse;whiteSpace=wrap;html=1;" parent="1" vertex="1">
          <mxGeometry x="500" y="410" width="75" height="50" as="geometry" />
        </mxCell>
        <mxCell id="MdB9R3-AbIYy_LwFj9kP-58" style="rounded=0;orthogonalLoop=1;jettySize=auto;html=1;exitX=0;exitY=0.5;exitDx=0;exitDy=0;entryX=0.966;entryY=0.639;entryDx=0;entryDy=0;entryPerimeter=0;dashed=1;" parent="1" source="MdB9R3-AbIYy_LwFj9kP-57" target="MdB9R3-AbIYy_LwFj9kP-17" edge="1">
          <mxGeometry relative="1" as="geometry" />
        </mxCell>
        <mxCell id="MdB9R3-AbIYy_LwFj9kP-59" value="&amp;lt;&amp;lt;estender&amp;gt;&amp;gt;" style="edgeLabel;html=1;align=center;verticalAlign=middle;resizable=0;points=[];" parent="MdB9R3-AbIYy_LwFj9kP-58" connectable="0" vertex="1">
          <mxGeometry x="-0.0011" y="1" relative="1" as="geometry">
            <mxPoint as="offset" />
          </mxGeometry>
        </mxCell>
        <mxCell id="MdB9R3-AbIYy_LwFj9kP-78" style="edgeStyle=orthogonalEdgeStyle;rounded=0;orthogonalLoop=1;jettySize=auto;html=1;exitX=0.5;exitY=0;exitDx=0;exitDy=0;endArrow=none;endFill=0;" parent="1" source="MdB9R3-AbIYy_LwFj9kP-61" edge="1">
          <mxGeometry relative="1" as="geometry">
            <mxPoint x="290" y="480" as="targetPoint" />
            <Array as="points">
              <mxPoint x="270" y="480" />
              <mxPoint x="270" y="480" />
            </Array>
          </mxGeometry>
        </mxCell>
        <mxCell id="MdB9R3-AbIYy_LwFj9kP-61" value="&lt;font style=&quot;font-size: 10px;&quot;&gt;Mudar&lt;/font&gt;&lt;div style=&quot;font-size: 10px;&quot;&gt;&lt;font style=&quot;font-size: 10px;&quot;&gt;Tema&lt;/font&gt;&lt;/div&gt;" style="ellipse;whiteSpace=wrap;html=1;" parent="1" vertex="1">
          <mxGeometry x="219.5" y="490" width="50" height="30" as="geometry" />
        </mxCell>
        <mxCell id="MdB9R3-AbIYy_LwFj9kP-62" value="&lt;span style=&quot;font-size: 10px;&quot;&gt;Alterar&lt;/span&gt;&lt;div&gt;&lt;span style=&quot;font-size: 10px;&quot;&gt;fonte&lt;/span&gt;&lt;/div&gt;" style="ellipse;whiteSpace=wrap;html=1;" parent="1" vertex="1">
          <mxGeometry x="289.5" y="490" width="50" height="30" as="geometry" />
        </mxCell>
        <mxCell id="MdB9R3-AbIYy_LwFj9kP-76" style="edgeStyle=orthogonalEdgeStyle;rounded=0;orthogonalLoop=1;jettySize=auto;html=1;endArrow=block;endFill=0;exitX=0.5;exitY=0;exitDx=0;exitDy=0;" parent="1" source="MdB9R3-AbIYy_LwFj9kP-62" target="MdB9R3-AbIYy_LwFj9kP-18" edge="1">
          <mxGeometry relative="1" as="geometry">
            <mxPoint x="400" y="530" as="sourcePoint" />
            <mxPoint x="287" y="540" as="targetPoint" />
            <Array as="points">
              <mxPoint x="288" y="480" />
            </Array>
          </mxGeometry>
        </mxCell>
        <mxCell id="MdB9R3-AbIYy_LwFj9kP-63" value="&lt;span style=&quot;font-size: 10px;&quot;&gt;Alterar&lt;/span&gt;&lt;div&gt;&lt;span style=&quot;font-size: 10px;&quot;&gt;senha&lt;/span&gt;&lt;/div&gt;" style="ellipse;whiteSpace=wrap;html=1;" parent="1" vertex="1">
          <mxGeometry x="356.5" y="490" width="50" height="30" as="geometry" />
        </mxCell>
        <mxCell id="MdB9R3-AbIYy_LwFj9kP-80" style="edgeStyle=orthogonalEdgeStyle;rounded=0;orthogonalLoop=1;jettySize=auto;html=1;exitX=0.5;exitY=0;exitDx=0;exitDy=0;entryX=0.5;entryY=0;entryDx=0;entryDy=0;endArrow=none;endFill=0;" parent="1" source="MdB9R3-AbIYy_LwFj9kP-64" target="MdB9R3-AbIYy_LwFj9kP-63" edge="1">
          <mxGeometry relative="1" as="geometry">
            <Array as="points">
              <mxPoint x="410" y="480" />
              <mxPoint x="410" y="480" />
            </Array>
          </mxGeometry>
        </mxCell>
        <mxCell id="MdB9R3-AbIYy_LwFj9kP-64" value="&lt;span style=&quot;font-size: 10px;&quot;&gt;Escolher&lt;/span&gt;&lt;div&gt;&lt;span style=&quot;font-size: 10px;&quot;&gt;foto&lt;/span&gt;&lt;/div&gt;" style="ellipse;whiteSpace=wrap;html=1;" parent="1" vertex="1">
          <mxGeometry x="419" y="490" width="50" height="30" as="geometry" />
        </mxCell>
        <mxCell id="MdB9R3-AbIYy_LwFj9kP-65" value="Exibir aviso para cadastro" style="ellipse;whiteSpace=wrap;html=1;" parent="1" vertex="1">
          <mxGeometry x="370" y="220" width="75" height="50" as="geometry" />
        </mxCell>
        <mxCell id="MdB9R3-AbIYy_LwFj9kP-66" value="Verificar&lt;div&gt;login&lt;/div&gt;" style="ellipse;whiteSpace=wrap;html=1;" parent="1" vertex="1">
          <mxGeometry x="390" y="300" width="75" height="50" as="geometry" />
        </mxCell>
        <mxCell id="MdB9R3-AbIYy_LwFj9kP-68" style="rounded=0;orthogonalLoop=1;jettySize=auto;html=1;exitX=0;exitY=0.5;exitDx=0;exitDy=0;entryX=0.718;entryY=0.066;entryDx=0;entryDy=0;entryPerimeter=0;dashed=1;" parent="1" source="MdB9R3-AbIYy_LwFj9kP-65" target="MdB9R3-AbIYy_LwFj9kP-8" edge="1">
          <mxGeometry relative="1" as="geometry" />
        </mxCell>
        <mxCell id="MdB9R3-AbIYy_LwFj9kP-69" value="&amp;lt;&amp;lt;estender&amp;gt;&amp;gt;" style="edgeLabel;html=1;align=center;verticalAlign=middle;resizable=0;points=[];" parent="MdB9R3-AbIYy_LwFj9kP-68" connectable="0" vertex="1">
          <mxGeometry x="-0.0231" relative="1" as="geometry">
            <mxPoint as="offset" />
          </mxGeometry>
        </mxCell>
        <mxCell id="MdB9R3-AbIYy_LwFj9kP-70" style="rounded=0;orthogonalLoop=1;jettySize=auto;html=1;exitX=1;exitY=0.5;exitDx=0;exitDy=0;entryX=0.083;entryY=0.28;entryDx=0;entryDy=0;entryPerimeter=0;dashed=1;" parent="1" source="MdB9R3-AbIYy_LwFj9kP-8" target="MdB9R3-AbIYy_LwFj9kP-66" edge="1">
          <mxGeometry relative="1" as="geometry" />
        </mxCell>
        <mxCell id="MdB9R3-AbIYy_LwFj9kP-71" value="&amp;lt;&amp;lt;incluir&amp;gt;&amp;gt;" style="edgeLabel;html=1;align=center;verticalAlign=middle;resizable=0;points=[];" parent="MdB9R3-AbIYy_LwFj9kP-70" connectable="0" vertex="1">
          <mxGeometry x="0.0097" y="-2" relative="1" as="geometry">
            <mxPoint as="offset" />
          </mxGeometry>
        </mxCell>
        <mxCell id="MdB9R3-AbIYy_LwFj9kP-81" style="edgeStyle=orthogonalEdgeStyle;rounded=0;orthogonalLoop=1;jettySize=auto;html=1;exitX=0.5;exitY=0;exitDx=0;exitDy=0;entryX=0.5;entryY=0;entryDx=0;entryDy=0;endArrow=none;endFill=0;" parent="1" source="MdB9R3-AbIYy_LwFj9kP-73" target="MdB9R3-AbIYy_LwFj9kP-64" edge="1">
          <mxGeometry relative="1" as="geometry">
            <Array as="points">
              <mxPoint x="480" y="480" />
              <mxPoint x="480" y="480" />
            </Array>
          </mxGeometry>
        </mxCell>
        <mxCell id="MdB9R3-AbIYy_LwFj9kP-73" value="&lt;span style=&quot;font-size: 10px;&quot;&gt;Escolher&lt;/span&gt;&lt;div&gt;&lt;span style=&quot;font-size: 10px;&quot;&gt;dificuldade&lt;/span&gt;&lt;/div&gt;" style="ellipse;whiteSpace=wrap;html=1;" parent="1" vertex="1">
          <mxGeometry x="480" y="490" width="50" height="30" as="geometry" />
        </mxCell>
        <mxCell id="MdB9R3-AbIYy_LwFj9kP-77" style="edgeStyle=orthogonalEdgeStyle;rounded=0;orthogonalLoop=1;jettySize=auto;html=1;exitX=0.5;exitY=1;exitDx=0;exitDy=0;" parent="1" source="MdB9R3-AbIYy_LwFj9kP-18" target="MdB9R3-AbIYy_LwFj9kP-18" edge="1">
          <mxGeometry relative="1" as="geometry" />
        </mxCell>
        <mxCell id="MdB9R3-AbIYy_LwFj9kP-79" style="edgeStyle=orthogonalEdgeStyle;rounded=0;orthogonalLoop=1;jettySize=auto;html=1;exitX=0.5;exitY=0;exitDx=0;exitDy=0;endArrow=none;endFill=0;" parent="1" source="MdB9R3-AbIYy_LwFj9kP-63" edge="1">
          <mxGeometry relative="1" as="geometry">
            <mxPoint x="310" y="480" as="targetPoint" />
            <Array as="points">
              <mxPoint x="381" y="480" />
            </Array>
          </mxGeometry>
        </mxCell>
        <mxCell id="07AEc0GG081JNbOmvuIe-1" value="Guelexia&amp;nbsp;" style="text;strokeColor=none;align=center;fillColor=none;html=1;verticalAlign=middle;whiteSpace=wrap;rounded=0;fontSize=16;" vertex="1" parent="1">
          <mxGeometry x="405" y="20" width="60" height="30" as="geometry" />
        </mxCell>
      </root>
    </mxGraphModel>
  </diagram>
</mxfile>
